:SAMPLES-PER-SECOND 30
:FULLY-SPECIFIED
:DEGREES
108
root  -14.1065 40.6365 -13.4184 5.68079 -78.6628 -7.5697
RightUpLeg  -1.82486 -9.15475 -1.96757
RightLeg  10.0903 -15.5954 3.80686
RightFoot  -4.97031 0.0874178 -2.17482
RightToes  0.00048216 0.542163 -0.142577
Spine  6.61033 2.27087 17.6745
Spine1  14.8867 5.88806 -7.20731
HEad  -21.1225 -13.4909 -9.55069
LeftShoulder1  8.34185 -13.5169 -42.5883
LeftArm  -16.2707 17.0668 -29.5786
LeftForeArm  43.2779 -41.0513 -6.97887
LeftHand  -0.25398 0.0180481 5.50724
RightShoulder  3.15725 7.40405 22.7075
RightArm  -32.9949 59.5467 30.5569
RightForeArm  47.8252 74.9326 41.0649
RightHand  -2.17168 4.52527 -25.149
LeftUpLeg  -2.555 5.26295 11.7232
LeftLeg  7.80785 -2.9147 0.150145
LeftFoot  -3.12236 0.617663 -8.32684
LeftToes  1.06246e-005 4.65855e-005 -8.18503e-006
109
root  -14.2654 40.6408 -13.4368 7.07118 -79.7859 -9.31786
RightUpLeg  -1.23693 -8.95273 -1.70157
RightLeg  9.90081 -14.6761 3.88423
RightFoot  -5.00009 0.0945651 -2.31637
RightToes  0.00048216 0.542163 -0.142577
Spine  6.37169 2.44967 18.226
Spine1  14.5182 6.6059 -8.94225
HEad  -21.3468 -12.7817 -9.59497
LeftShoulder1  8.22482 -13.4501 -42.1263
LeftArm  -13.1873 17.0789 -29.941
LeftForeArm  36.151 -29.2168 -4.37779
LeftHand  -0.25398 0.0180481 5.50724
RightShoulder  2.77937 6.9187 20.2771
RightArm  -27.4737 62.8795 31.1987
RightForeArm  25.3972 62.218 19.5098
RightHand  -0.633614 -1.7154 -19.117
LeftUpLeg  -1.55782 5.60502 12.1403
LeftLeg  7.72502 -2.31477 0.231295
LeftFoot  -3.41647 0.605589 -8.43635
LeftToes  1.06246e-005 4.65855e-005 -8.18503e-006
110
root  -14.4265 40.6469 -13.4241 8.44382 -80.8426 -10.9211
RightUpLeg  -0.774316 -8.80467 -1.5621
RightLeg  9.75828 -13.74 3.92477
RightFoot  -5.03521 0.0967267 -2.37456
RightToes  0.00048216 0.542163 -0.142577
Spine  6.1222 2.71195 18.5284
Spine1  13.6997 7.30142 -10.5786
HEad  -20.7903 -12.9823 -8.31459
LeftShoulder1  8.42669 -13.7401 -42.4552
LeftArm  -10.2744 17.4835 -29.0521
LeftForeArm  31.0036 -18.1766 -3.39709
LeftHand  -0.25398 0.0180481 5.50724
RightShoulder  2.33239 5.87057 18.3574
RightArm  -15.0043 67.1209 31.4534
RightForeArm  14.9979 45.9499 10.344
RightHand  0.124823 -6.77208 -12.0154
LeftUpLeg  -0.743654 5.79988 12.3533
LeftLeg  7.74067 -1.51436 0.333288
LeftFoot  -3.65861 0.578585 -8.28097
LeftToes  1.06246e-005 4.65855e-005 -8.18503e-006
111
root  -14.5957 40.6508 -13.3936 10.5298 -81.7867 -13.2381
RightUpLeg  -0.251796 -8.65925 -1.40779
RightLeg  9.55481 -12.8755 4.00321
RightFoot  -5.06888 0.100062 -2.45079
RightToes  0.00048216 0.542163 -0.142577
Spine  5.88164 2.87999 18.6614
Spine1  12.8562 7.78798 -11.999
HEad  -20.1786 -13.1265 -6.44628
LeftShoulder1  8.58862 -14.0035 -42.6322
LeftArm  -12.2076 18.9999 -28.2057
LeftForeArm  33.2151 -9.77578 -4.29798
LeftHand  -0.25398 0.0180481 5.50724
RightShoulder  1.9395 4.9673 16.2063
RightArm  7.5808 70.3795 35.3069
RightForeArm  11.8874 34.1386 6.82516
RightHand  0.0691038 -8.32232 -4.95144
LeftUpLeg  0.0546984 6.03945 12.6236
LeftLeg  7.77809 -0.879786 0.410473
LeftFoot  -3.94346 0.555192 -8.21416
LeftToes  1.06246e-005 4.65855e-005 -8.18503e-006
112
root  -14.76 40.6531 -13.3484 13.0428 -82.4401 -16.0372
RightUpLeg  0.378461 -8.50031 -1.22342
RightLeg  9.28985 -12.2908 4.0576
RightFoot  -5.09858 0.100641 -2.48143
RightToes  0.00048216 0.542163 -0.142577
Spine  5.65079 2.87645 18.7552
Spine1  12.364 8.12617 -13.4485
HEad  -20.4491 -12.9484 -4.02291
LeftShoulder1  8.47005 -13.9728 -42.0804
LeftArm  -11.9921 21.3545 -28.4434
LeftForeArm  35.0439 -5.61913 -3.94535
LeftHand  -0.25398 0.0180481 5.50724
RightShoulder  1.71483 4.96451 13.3455
RightArm  27.3557 68.9274 40.9804
RightForeArm  15.0556 31.5625 6.07514
RightHand  -0.152637 -8.79107 3.09064
LeftUpLeg  0.81025 6.28843 12.9613
LeftLeg  7.84434 -0.566408 0.449109
LeftFoot  -4.24704 0.542715 -8.33527
LeftToes  1.06246e-005 4.65855e-005 -8.18503e-006
113
root  -14.9149 40.6582 -13.294 14.0787 -82.5122 -17.2751
RightUpLeg  0.947008 -8.38045 -1.13277
RightLeg  9.06041 -12.264 3.99508
RightFoot  -5.17403 0.0894991 -2.32443
RightToes  0.00048216 0.542163 -0.142577
Spine  5.14347 2.82399 18.2356
Spine1  12.4513 8.19898 -14.1309
HEad  -21.5981 -12.6297 -1.48796
LeftShoulder1  8.32302 -13.7974 -41.7483
LeftArm  -11.7519 24.0857 -28.7584
LeftForeArm  37.0891 -5.16057 -3.79477
LeftHand  -0.25398 0.0180481 5.50724
RightShoulder  1.82059 5.86959 12.37
RightArm  30.9023 63.1182 43.1816
RightForeArm  18.2866 34.3326 6.61132
RightHand  -0.280381 -9.34417 6.10301
LeftUpLeg  1.29589 6.37143 13.1324
LeftLeg  7.86789 -0.602575 0.455204
LeftFoot  -4.42324 0.536711 -8.43018
LeftToes  1.06246e-005 4.65855e-005 -8.18503e-006
114
root  -15.0633 40.6676 -13.232 13.328 -82.0778 -16.6133
RightUpLeg  1.42235 -8.3346 -1.16575
RightLeg  8.87277 -12.6955 3.88209
RightFoot  -5.28468 0.0717541 -2.05708
RightToes  0.00048216 0.542163 -0.142577
Spine  4.28218 2.90337 16.7622
Spine1  13.0926 7.91115 -13.1245
HEad  -22.6324 -12.4012 0.0837271
LeftShoulder1  8.41232 -13.6815 -42.5325
LeftArm  -11.5896 26.6785 -28.6317
LeftForeArm  37.3907 -6.63974 -3.89262
LeftHand  -0.25398 0.0180481 5.50724
RightShoulder  2.41237 7.01644 16.206
RightArm  25.8776 55.5309 40.9604
RightForeArm  16.8816 39.5601 8.20612
RightHand  -0.236277 -9.92765 3.91825
LeftUpLeg  1.54628 6.32993 13.1242
LeftLeg  7.77067 -0.958438 0.424816
LeftFoot  -4.45072 0.531095 -8.37511
LeftToes  1.06246e-005 4.65855e-005 -8.18503e-006
115
root  -15.1976 40.6772 -13.1557 12.4389 -81.5354 -15.8604
RightUpLeg  1.9457 -8.35742 -1.26276
RightLeg  8.68835 -13.1607 3.84687
RightFoot  -5.37291 0.0610127 -1.88863
RightToes  0.00048216 0.542163 -0.142577
Spine  3.4859 3.16011 14.981
Spine1  13.9488 7.48665 -10.9631
HEad  -22.9641 -12.4952 0.161422
LeftShoulder1  8.55153 -13.5116 -43.7401
LeftArm  -11.8777 28.463 -28.831
LeftForeArm  35.6355 -8.13686 -3.97137
LeftHand  -0.25398 0.0180481 5.50724
RightShoulder  3.39085 7.97674 23.3324
RightArm  19.702 47.4587 35.1984
RightForeArm  15.8009 46.3488 10.648
RightHand  -0.118775 -9.71594 1.29402
LeftUpLeg  1.83993 6.37759 13.1345
LeftLeg  7.60148 -1.53592 0.345557
LeftFoot  -4.46234 0.524721 -8.30199
LeftToes  1.06246e-005 4.65855e-005 -8.18503e-006
116
root  -15.3024 40.6864 -13.0585 11.4992 -81.0332 -15.1632
RightUpLeg  2.54733 -8.45303 -1.45881
RightLeg  8.51052 -13.5018 3.87249
RightFoot  -5.42721 0.0558553 -1.79447
RightToes  0.00048216 0.542163 -0.142577
Spine  3.0998 3.4526 13.6778
Spine1  14.6239 7.19514 -9.03512
HEad  -22.8715 -12.9808 -0.694067
LeftShoulder1  8.45371 -13.1273 -44.2621
LeftArm  -12.8678 29.0505 -29.8332
LeftForeArm  33.3285 -9.06451 -3.86326
LeftHand  -0.25398 0.0180481 5.50724
RightShoulder  4.36571 8.75545 29.6561
RightArm  14.126 38.1217 29.9679
RightForeArm  18.7171 52.3753 13.1093
RightHand  -0.128331 -10.8386 1.01334
LeftUpLeg  2.23723 6.49904 13.1389
LeftLeg  7.41898 -2.20354 0.22897
LeftFoot  -4.49859 0.524498 -8.31119
LeftToes  1.06246e-005 4.65855e-005 -8.18503e-006
117
root  -15.3742 40.6999 -12.9432 9.42838 -80.3262 -13.3007
RightUpLeg  3.09209 -8.62417 -1.84513
RightLeg  8.36742 -13.9729 3.83072
RightFoot  -5.4895 0.0408738 -1.5293
RightToes  0.00048216 0.542163 -0.142577
Spine  2.94793 3.55854 12.8205
Spine1  14.9907 6.95145 -7.89516
HEad  -22.5387 -13.6318 -1.61958
LeftShoulder1  8.21471 -12.6892 -44.1701
LeftArm  -13.9854 28.7372 -30.8891
LeftForeArm  32.0184 -10.0497 -3.6636
LeftHand  -0.25398 0.0180481 5.50724
RightShoulder  5.07881 9.33403 33.6282
RightArm  8.9191 27.5778 27.6987
RightForeArm  21.3635 55.3868 14.5217
RightHand  -0.158982 -12.613 1.06501
LeftUpLeg  2.51613 6.46815 12.9001
LeftLeg  7.19783 -2.91068 0.107672
LeftFoot  -4.46133 0.524893 -8.27811
LeftToes  1.06246e-005 4.65855e-005 -8.18503e-006
118
root  -15.4252 40.7197 -12.8177 6.53188 -79.3084 -10.4598
RightUpLeg  3.49371 -8.82652 -2.3796
RightLeg  8.22528 -14.7209 3.6905
RightFoot  -5.55937 0.0142137 -1.02759
RightToes  0.00048216 0.542163 -0.142577
Spine  2.66664 3.39409 12.0046
Spine1  15.1889 6.52704 -7.16976
HEad  -21.6908 -14.1496 -2.25193
LeftShoulder1  8.10184 -12.4756 -44.1436
LeftArm  -14.3496 28.0601 -31.2139
LeftForeArm  32.0266 -11.5183 -3.56842
LeftHand  -0.25398 0.0180481 5.50724
RightShoulder  5.48858 9.58732 35.9524
RightArm  3.53339 17.5302 28.0807
RightForeArm  21.6004 53.4522 13.4759
RightHand  -0.0783321 -12.5128 -0.187291
LeftUpLeg  2.5634 6.26066 12.3877
LeftLeg  6.89813 -3.6713 -0.0122126
LeftFoot  -4.30011 0.52183 -8.05518
LeftToes  1.06246e-005 4.65855e-005 -8.18503e-006
